<?xml version="1.0" standalone="no"?>
<!DOCTYPE svg PUBLIC "-//W3C//DTD SVG 20010904//EN"
 "http://www.w3.org/TR/2001/REC-SVG-20010904/DTD/svg10.dtd">
<svg version="1.0" xmlns="http://www.w3.org/2000/svg"
 width="1024.000000pt" height="1024.000000pt" viewBox="0 0 1024.000000 1024.000000"
 preserveAspectRatio="xMidYMid meet">

<g transform="translate(0.000000,1024.000000) scale(0.100000,-0.100000)"
fill="#000000" stroke="none">
<path d="M3275 8595 c-442 -70 -800 -318 -1078 -745 -150 -232 -261 -534 -318
-870 -27 -158 -37 -538 -20 -728 28 -304 113 -652 230 -947 36 -89 174 -358
250 -487 95 -161 201 -387 274 -583 86 -229 142 -480 182 -805 55 -449 83
-608 141 -803 69 -231 180 -483 281 -637 129 -196 287 -308 483 -340 193 -33
418 78 544 268 80 122 183 339 256 542 181 504 292 727 421 843 67 61 164 122
178 113 13 -8 133 -220 193 -341 111 -221 246 -558 352 -879 40 -122 86 -246
101 -276 113 -225 314 -355 520 -336 264 24 485 209 653 546 147 295 227 550
322 1035 94 482 174 737 337 1085 19 41 60 129 90 195 30 66 77 167 105 224
214 449 387 930 457 1273 99 483 87 1005 -31 1378 -242 761 -837 1186 -1658
1183 -299 0 -495 -44 -917 -205 -357 -136 -407 -151 -488 -151 -80 0 -186 29
-360 100 -544 223 -679 270 -895 317 -213 46 -439 58 -605 31z m476 -264 c223
-42 386 -94 779 -252 335 -134 505 -189 585 -189 73 0 327 69 505 137 421 161
600 206 860 218 171 8 277 -3 443 -46 449 -116 736 -348 923 -745 103 -219
149 -402 175 -695 32 -368 -47 -829 -226 -1334 -81 -227 -139 -363 -319 -743
-183 -386 -202 -430 -258 -587 -78 -220 -137 -448 -217 -847 -84 -418 -144
-640 -232 -861 -97 -243 -215 -411 -353 -502 -137 -92 -266 -75 -382 47 -70
73 -93 123 -157 333 -14 44 -39 127 -57 185 -84 276 -193 562 -262 690 -23 41
-52 95 -66 120 -150 275 -249 404 -396 512 -94 69 -166 98 -262 105 -89 7
-144 -9 -144 -41 0 -36 26 -63 123 -122 50 -31 105 -66 120 -77 l29 -20 -61
-32 c-139 -75 -275 -213 -359 -367 -69 -125 -148 -316 -228 -549 -119 -346
-199 -524 -290 -639 -74 -95 -142 -130 -248 -130 -232 0 -460 320 -597 840
-52 195 -75 323 -118 655 -55 417 -86 582 -156 815 -70 235 -184 481 -382 824
-169 294 -251 490 -323 776 -61 247 -84 444 -84 725 0 296 18 432 97 715 70
250 237 537 425 731 114 119 185 171 344 253 235 122 475 152 769 97z"/>
<path d="M6415 7831 c-185 -46 -291 -139 -316 -276 -30 -158 90 -371 285 -509
128 -91 212 -120 386 -134 104 -9 128 -15 250 -63 127 -50 140 -53 225 -54 73
0 97 4 130 22 58 31 91 70 121 143 88 218 -12 478 -258 668 -119 91 -306 165
-517 202 -137 24 -213 24 -306 1z"/>
<path d="M5380 7744 c-70 -9 -193 -13 -370 -12 -277 2 -298 0 -320 -42 -8 -16
-5 -25 17 -50 62 -69 345 -121 554 -101 135 13 195 27 271 65 101 50 124 107
58 141 -34 18 -68 17 -210 -1z"/>
<path d="M4280 6667 c-14 -7 -50 -32 -80 -55 -128 -98 -333 -176 -570 -218
-183 -33 -246 -50 -270 -74 -43 -43 -33 -103 23 -144 25 -18 42 -21 130 -20
87 2 238 25 323 49 20 6 20 4 -8 -53 -26 -52 -30 -71 -30 -148 -2 -127 39
-212 122 -254 102 -52 207 -6 262 115 32 72 32 219 -1 287 -26 53 -78 104
-117 114 -22 6 -14 11 53 38 172 70 313 197 313 282 0 69 -87 116 -150 81z"/>
<path d="M5600 6663 c-44 -23 -64 -63 -55 -111 5 -28 23 -53 73 -103 54 -52
89 -76 178 -119 l112 -54 -52 -17 c-100 -34 -153 -138 -144 -286 9 -153 89
-254 202 -253 118 1 206 124 206 288 -1 87 -15 136 -56 189 -23 30 -24 35 -8
28 72 -31 380 -85 484 -85 55 0 65 3 91 29 30 31 38 75 19 111 -18 33 -75 59
-166 75 -159 28 -384 87 -469 124 -122 54 -187 89 -249 136 -86 64 -117 73
-166 48z"/>
<path d="M4769 5516 c-187 -55 -399 -246 -399 -358 0 -35 43 -85 80 -93 53
-12 94 11 154 84 90 112 199 170 338 179 90 5 158 -9 248 -51 50 -24 89 -56
167 -134 94 -95 105 -103 140 -103 88 0 141 76 104 149 -76 147 -286 297 -472
336 -107 23 -268 19 -360 -9z"/>
</g>
</svg>
