<?xml version="1.0" standalone="no"?>
<!DOCTYPE svg PUBLIC "-//W3C//DTD SVG 20010904//EN"
 "http://www.w3.org/TR/2001/REC-SVG-20010904/DTD/svg10.dtd">
<svg version="1.0" xmlns="http://www.w3.org/2000/svg"
 width="1328.000000pt" height="1328.000000pt" viewBox="0 0 1328.000000 1328.000000"
 preserveAspectRatio="xMidYMid meet">

<g transform="translate(0.000000,1328.000000) scale(0.100000,-0.100000)"
fill="#000000" stroke="none">
<path d="M4675 11099 c-204 -27 -417 -91 -615 -185 -331 -159 -580 -378 -793
-701 -132 -198 -274 -499 -336 -708 -248 -843 -224 -1768 70 -2647 68 -203
146 -406 282 -728 251 -597 312 -858 397 -1699 79 -774 173 -1233 340 -1646
103 -255 257 -481 423 -622 281 -237 663 -287 944 -122 70 41 214 183 266 261
101 153 157 285 302 708 133 388 213 589 283 705 105 177 196 233 272 169 67
-57 111 -182 225 -639 152 -615 246 -849 442 -1102 187 -242 504 -377 783
-334 383 60 707 376 914 894 152 377 218 649 352 1431 102 602 132 733 220
956 43 109 203 429 329 660 428 784 679 1579 745 2365 56 671 -88 1356 -384
1828 -325 518 -777 818 -1391 923 -127 22 -505 25 -645 5 -238 -33 -487 -96
-715 -181 -195 -73 -275 -91 -430 -97 -236 -9 -307 9 -615 157 -420 201 -735
302 -1081 345 -135 16 -466 19 -584 4z m619 -383 c254 -41 501 -124 831 -278
185 -87 321 -140 455 -176 87 -23 113 -26 295 -26 243 -1 276 5 610 115 371
122 539 156 820 166 506 18 927 -129 1247 -435 323 -310 523 -754 589 -1307
17 -140 17 -564 1 -710 -45 -393 -110 -698 -229 -1060 -112 -343 -246 -653
-464 -1070 -405 -777 -444 -894 -584 -1735 -77 -463 -100 -583 -161 -823 -130
-517 -268 -812 -483 -1028 -80 -80 -111 -103 -185 -140 -89 -44 -90 -44 -195
-44 -100 0 -110 2 -173 34 -155 78 -286 248 -386 501 -59 149 -112 332 -197
675 -92 371 -137 508 -218 670 -74 148 -130 230 -226 329 -100 102 -174 158
-287 214 -101 51 -182 72 -274 72 -117 0 -170 -39 -170 -125 0 -71 28 -92 170
-131 131 -35 270 -103 270 -133 0 -4 -24 -13 -54 -20 -73 -16 -158 -73 -234
-156 -79 -86 -126 -158 -201 -305 -81 -157 -126 -272 -251 -645 -122 -363
-153 -444 -217 -569 -136 -263 -351 -343 -593 -220 -155 78 -278 222 -385 449
-164 347 -270 828 -345 1576 -50 497 -74 673 -135 972 -65 325 -128 518 -334
1024 -157 387 -225 577 -291 809 -122 431 -166 778 -157 1241 7 370 38 590
127 901 227 790 699 1275 1350 1386 52 9 109 18 125 20 68 10 445 -3 539 -18z"/>
<path d="M7647 10214 c-37 -8 -150 -39 -250 -68 -405 -119 -481 -137 -667
-158 -123 -13 -299 -2 -444 28 -90 18 -144 15 -200 -11 -96 -46 -102 -169 -11
-225 47 -29 236 -67 407 -81 238 -21 482 14 808 113 91 28 255 76 365 108 174
51 203 62 227 89 22 25 28 41 28 80 0 59 -25 95 -84 122 -48 22 -87 23 -179 3z"/>
<path d="M5171 8354 c-135 -68 -190 -305 -110 -472 65 -133 268 -136 363 -5
48 66 70 141 70 238 0 123 -44 207 -129 246 -59 27 -130 24 -194 -7z"/>
<path d="M7277 8206 c-63 -23 -104 -62 -139 -133 -32 -65 -33 -73 -33 -183 0
-101 3 -121 24 -163 74 -151 280 -156 379 -8 46 68 65 148 60 245 -7 123 -61
207 -157 241 -53 18 -84 18 -134 1z"/>
<path d="M5685 7691 c-16 -10 -37 -27 -46 -37 -59 -69 -49 -234 24 -383 45
-93 169 -217 259 -260 295 -139 638 -68 837 173 116 142 161 322 100 407 -40
57 -118 75 -180 43 -31 -15 -53 -56 -94 -167 -23 -66 -112 -159 -183 -194 -52
-25 -67 -28 -167 -28 -100 0 -115 2 -167 28 -99 49 -161 145 -177 277 -5 39
-17 82 -26 96 -39 60 -123 81 -180 45z"/>
</g>
</svg>
